<?xml version="1.0" encoding="utf-8"?>
<!-- Generator: Adobe Illustrator 23.0.1, SVG Export Plug-In . SVG Version: 6.00 Build 0)  -->
<svg version="1.1" id="Layer_1" xmlns="http://www.w3.org/2000/svg" xmlns:xlink="http://www.w3.org/1999/xlink" x="0px" y="0px"
	 viewBox="0 0 260 130" style="enable-background:new 0 0 260 130;" xml:space="preserve">
<style type="text/css">
	.st0{fill:#1B7EBF;}
	.st1{fill:#FFFFFF;}
	.st2{fill:#19CCA3;}
	.st3{fill:#96A0AF;}
	.st4{fill:#EF4334;}
	.st5{fill:#41C257;}
	.st6{fill:#506FAC;}
	.st7{fill:#29C5F6;}
	.st8{fill:#EB4026;}
	.st9{fill:#CA212A;}
</style>
<polygon class="st0" points="12.3,9.7 12.3,19.6 17.5,14.6 "/>
<polygon class="st1" points="44.6,10.3 44.6,20.2 49.7,15.2 "/>
<polygon class="st2" points="74.6,9.7 74.6,19.6 79.8,14.6 "/>
<path class="st1" d="M172.7,17c-1.7,1.5-4.3,1.2-5.7-0.5c-1.3-1.6-1.2-4,0.3-5.5s3.9-1.5,5.5-0.2c1.7,1.4,1.9,4,0.4,5.7
	c0.1,0.1,0.2,0.2,0.4,0.2s0.3,0,0.5,0.2c0.9,0.9,1.9,1.9,2.8,2.8l0.1,0.1c-0.3,0.3-0.6,0.6-1,1l-0.1-0.1c-1-1-1.9-1.9-2.9-2.9
	c-0.1-0.1-0.1-0.2-0.1-0.3v-0.1C173,17.2,172.9,17.1,172.7,17z M172.9,14c0-1.6-1.2-2.8-2.8-2.8s-2.8,1.2-2.8,2.8s1.2,2.8,2.8,2.8
	S172.9,15.5,172.9,14z"/>
<path class="st1" d="M217.9,0c-17.4,0-31.5,14.1-31.5,31.5S200.5,63,217.9,63s31.5-14.1,31.5-31.5S235.3,0,217.9,0z M211.8,43.8
	V19.3L224,31.5L211.8,43.8z"/>
<path class="st1" d="M55.6,47.6c0,2.3,0,4.6,0,6.9c0,1.3-0.7,2-2,2c-4.6,0-9.3,0-13.9,0c-1.3,0-2-0.7-2-2c0-4.6,0-9.2,0-13.9
	c0-1.3,0.7-2,2-2c4.7,0,9.3,0,14,0c1.2,0,2,0.7,2,2C55.6,42.9,55.6,45.3,55.6,47.6z M41.5,51.3C41.5,51.4,41.6,51.4,41.5,51.3
	c0.2,0.1,0.2,0.2,0.3,0.2c2,1,4,1,5.9,0.1c2.4-1.1,3.6-3,3.9-5.6c0.1-0.6,0.1-1.1,0.7-1.5c0.2-0.1,0.2-0.3,0.4-0.6
	c-0.5,0.1-0.8,0.2-1.1,0.2c0.3-0.4,0.5-0.8,0.8-1.1c-0.4,0-0.8,0.2-1.2,0.3c-0.2,0-0.4,0-0.5-0.1c-0.8-0.7-1.7-0.7-2.7-0.3
	c-0.9,0.4-1.4,1.2-1.4,2.2c0,0.1,0,0.2,0,0.4c-2-0.1-3.5-1.1-4.9-2.5c-0.5,1.2-0.2,2.2,0.6,3.3c-0.4-0.1-0.6-0.2-0.9-0.2
	c0.1,1.1,0.6,1.9,1.6,2.4c-0.2,0-0.4,0-0.7,0c0.4,1,1.1,1.5,2.2,1.7C43.7,51.1,42.7,51.2,41.5,51.3z"/>
<path class="st1" d="M77.4,56.5c-2.3,0-4.6,0-6.9,0c-1.3,0-2-0.7-2-2c0-4.6,0-9.2,0-13.9c0-1.3,0.7-2,2-2c4.6,0,9.3,0,13.9,0
	c1.3,0,2,0.7,2,2c0,4.6,0,9.2,0,13.9c0,1.3-0.7,2-2,2C82,56.5,79.7,56.5,77.4,56.5z M83.7,53.8c0-1.8,0.1-3.6,0-5.3
	c-0.1-1.3-0.8-2.2-2.1-2.7c-1.2-0.4-2.2-0.1-3.1,0.8c0,0-0.1,0.1-0.2,0.1c0-0.3,0-0.6-0.1-0.9c-0.9,0-1.8,0-2.6,0c0,2.7,0,5.3,0,8
	c0.8,0,1.5,0,2.2,0c0.4,0,0.5-0.1,0.5-0.5c0-1.4,0-2.7,0-4.1c0-0.9,0.5-1.5,1.3-1.5s1.4,0.6,1.4,1.5c0,1.3,0,2.6,0,3.9
	c0,0.2,0,0.4,0,0.6C81.9,53.8,82.7,53.8,83.7,53.8z M71.2,45.8c0,2.7,0,5.3,0,8c0.9,0,1.7,0,2.6,0c0-2.7,0-5.3,0-8
	C72.9,45.8,72,45.8,71.2,45.8z M74.1,42.7c0-0.9-0.7-1.6-1.6-1.6s-1.6,0.7-1.6,1.6c0,0.9,0.7,1.6,1.6,1.6
	C73.3,44.3,74.1,43.6,74.1,42.7z"/>
<g>
	<path class="st1" d="M24.3,42.3c-0.1,0.1-0.2,0.2-0.3,0.3c-2.4,2.3-4.8,4.6-7.2,6.8c-0.1,0.1-0.2,0.2-0.3,0.3c-0.7,0.6-1.3,0.7-2,0
		c-2.6-2.4-5.1-4.9-7.7-7.3c0,0,0,0-0.1-0.1C12.6,42.2,18.4,42.2,24.3,42.3C24.3,42.2,24.3,42.3,24.3,42.3z"/>
	<path class="st1" d="M12.7,49.3c0.5,0.5,1,0.9,1.5,1.3c1,0.8,1.7,0.8,2.6,0c0.5-0.4,1-0.9,1.5-1.3c2,1.9,4,3.8,6,5.7
		c-5.9,0-11.7,0-17.6,0C8.7,53.1,10.7,51.2,12.7,49.3z"/>
	<path class="st1" d="M6,54.4c0-3.9,0-7.7,0-11.5c2,1.9,4,3.8,6,5.8C10,50.5,8.1,52.4,6,54.4z"/>
	<path class="st1" d="M25,42.9c0,3.9,0,7.6,0,11.5c-2-1.9-4-3.8-6-5.8C21,46.7,23,44.8,25,42.9z"/>
</g>
<g>
	<path class="st0" d="M18.3,68.6c-0.1,0.1-0.2,0.2-0.3,0.3c-2.4,2.5-4.8,4.9-7.2,7.4c-0.1,0.1-0.2,0.2-0.3,0.3c-0.7,0.7-1.3,0.7-2,0
		c-2.6-2.6-5.1-5.3-7.7-8c0,0,0,0-0.1-0.1C6.6,68.5,12.4,68.5,18.3,68.6C18.2,68.6,18.3,68.6,18.3,68.6z"/>
	<path class="st0" d="M6.7,76.2c0.5,0.5,1,1,1.5,1.4c1,0.8,1.7,0.9,2.6,0c0.5-0.4,1-0.9,1.5-1.4c2,2.1,4,4.1,6,6.2
		c-5.9,0-11.7,0-17.6,0C2.7,80.3,4.7,78.3,6.7,76.2z"/>
	<path class="st0" d="M0,81.7c0-4.2,0-8.3,0-12.5c2,2.1,4,4.2,6,6.3C4,77.6,2,79.6,0,81.7z"/>
	<path class="st0" d="M19,69.2c0,4.2,0,8.3,0,12.5c-2-2.1-4-4.2-6-6.2C15,73.4,17,71.3,19,69.2z"/>
</g>
<path class="st3" d="M90.1,70.9c0-0.4,0-0.8,0-1.2c0-0.2,0.1-0.4,0.2-0.5c0.4-0.5,0.8-1.1,1.4-1.3c0.5-0.2,1.2,0,1.9-0.1
	c1-0.1,1.6,0.2,2.3,0.9c0.4,0.5,0.7,0.9,0.6,1.5c0,0.2,0,0.4,0,0.7c1,0,2,0,2.9,0c1.3,0,1.9,0.6,1.9,1.8c0,2.7,0,5.4,0,8.1
	c0,1.1-0.6,1.8-1.7,1.8c-4.1,0-8.3,0-12.4,0c-1.1,0-1.7-0.6-1.7-1.7c0-2.8,0-5.5,0-8.3c0-1.1,0.6-1.7,1.7-1.7
	C88,70.9,89,70.9,90.1,70.9z M92,77.9c-0.6-0.6-1.1-1.2-1.7-1.8c-0.4,0.4-0.7,0.7-1,1C90.2,78,91.1,79,92,80c1.7-1.8,3.4-3.5,5-5.2
	c-0.3-0.3-0.6-0.7-1-1.1C94.8,75,93.4,76.4,92,77.9z M91.7,70.9c1.1,0,2.1,0,3.1,0c0-0.5,0-1,0-1.5c-1.1,0-2.1,0-3.1,0
	C91.7,69.9,91.7,70.4,91.7,70.9z"/>
<path class="st3" d="M120.8,83.2c-1.6,0-3.2,0-4.8,0c0-0.5,0-1,0-1.5c-1.1,0-2.1,0-3.2,0c0,0.5,0,1,0,1.5c-1.6,0-3.2,0-4.8,0
	c0-4.7,0-9.5,0-14.3c0.8,0,1.6,0,2.4,0c0-0.5,0-1,0-1.6c2.7,0,5.4,0,8.1,0c0,0.5,0,1,0,1.6c0.8,0,1.6,0,2.4,0
	C120.8,73.7,120.8,78.4,120.8,83.2z M113.5,71.3c-0.5,0-1.1,0-1.6,0c0,0.5,0,1,0,1.5c0.5,0,1,0,1.6,0
	C113.5,72.3,113.5,71.8,113.5,71.3z M116.7,71.3c-0.5,0-1,0-1.6,0c0,0.5,0,1,0,1.5c0.5,0,1,0,1.6,0
	C116.7,72.3,116.7,71.8,116.7,71.3z M111.9,74.5c0,0.5,0,1,0,1.5c0.5,0,1,0,1.6,0c0-0.5,0-1,0-1.5C113,74.5,112.5,74.5,111.9,74.5z
	 M115.1,76c0.5,0,1.1,0,1.6,0c0-0.5,0-1,0-1.5c-0.5,0-1,0-1.6,0C115.1,75,115.1,75.5,115.1,76z M113.5,77.6c-0.5,0-1,0-1.6,0
	c0,0.5,0,1,0,1.5c0.5,0,1,0,1.6,0C113.5,78.7,113.5,78.2,113.5,77.6z M116.7,79.2c0-0.5,0-1,0-1.5c-0.5,0-1,0-1.6,0c0,0.5,0,1,0,1.5
	C115.7,79.2,116.2,79.2,116.7,79.2z"/>
<path class="st3" d="M129,74.4c0-3.1,2.4-5.7,5.5-6.1s5.9,1.2,7,3.9c0.7,1.8,0.5,3.6-0.4,5.3c-1,1.9-2.6,3.3-4.2,4.6
	c-0.4,0.3-0.8,0.6-1.2,0.8c-0.1,0.1-0.3,0.1-0.4,0c-2.1-1.4-3.9-3-5.2-5.2C129.3,76.6,129,75.5,129,74.4z M135.4,76.7
	c1.3,0,2.3-1,2.3-2.2s-1-2.2-2.3-2.3c-1.3,0-2.3,1-2.3,2.2C133.1,75.7,134.1,76.7,135.4,76.7z"/>
<path class="st3" d="M31.9,77.8c1,0.2,1.9,0.4,2.7,0.7c0.9,0.3,1.8,0.8,2.5,1.5c0.5,0.5,0.8,1.1,0.8,1.9c-4.6,0-9.3,0-13.9,0
	c0-0.6,0.2-1,0.5-1.5c0.5-0.7,1.1-1.1,1.8-1.5c0.9-0.5,1.9-0.8,3-0.9c0.2,0,0.4-0.1,0.6-0.1c0.1-0.5,0-0.8-0.4-1.1
	c-0.9-0.7-1.4-1.6-1.5-2.7c-0.1-1,0-2,0.1-3.1c0.2-1.2,0.8-1.8,2.1-2c0.6-0.1,1.3,0,1.9,0.1c0.8,0.1,1.3,0.7,1.5,1.5
	c0.3,1.3,0.4,2.7,0.1,4c-0.2,1-0.8,1.8-1.6,2.4C32,77.2,32,77.6,31.9,77.8z"/>
<path class="st3" d="M76.9,82.7c-0.8-0.3-1.6-0.5-2.4-0.8c-2.1-0.9-4.1-2-5.7-3.8c-1.6-1.9-2.8-4.1-3.4-6.5
	c-0.2-0.6-0.1-1.1,0.3-1.6c0.6-0.6,1.1-1.3,1.7-1.9s1-0.6,1.7-0.1c0.9,0.6,1.6,1.4,2.1,2.3c0.4,0.8,0.3,1.1-0.4,1.7
	c-0.3,0.3-0.7,0.5-1,0.7c-0.5,0.4-0.7,0.8-0.5,1.4c0.1,0.4,0.3,0.7,0.5,1c0.9,1,1.9,2,2.9,2.9c0.3,0.3,0.7,0.4,1.1,0.6
	c0.5,0.2,0.9,0,1.2-0.5c0.3-0.4,0.6-0.8,0.9-1.2c0.4-0.5,0.7-0.6,1.2-0.3c1.3,0.6,2.2,1.5,2.9,2.7c0.2,0.3,0.1,0.6-0.1,0.9
	c-0.3,0.4-0.7,0.8-1.1,1.2c-0.4,0.4-0.9,0.7-1.4,1.1C77.4,82.5,77.1,82.6,76.9,82.7z"/>
<g>
	<path class="st3" d="M45.2,68.5c0.2,0,0.4-0.1,0.5-0.1c4,0,8,0,12,0c0.2,0,0.3,0.1,0.5,0.1c-2.2,2.6-4.4,5.1-6.6,7.7
		C49.5,73.6,47.4,71.1,45.2,68.5z"/>
	<path class="st3" d="M58,80.2c-4.2,0-8.4,0-12.5,0c1.4-1.4,2.8-2.8,4.2-4.2c0.7,0.8,1.4,1.6,2.1,2.4c0.7-0.8,1.4-1.6,2.1-2.4
		C55.3,77.4,56.5,78.8,58,80.2z"/>
	<path class="st3" d="M59.2,79.1c-1.4-1.4-2.9-2.9-4.3-4.3c1.4-1.6,2.8-3.3,4.3-5C59.2,73,59.2,76,59.2,79.1z"/>
	<path class="st3" d="M44.4,69.8c1.4,1.7,2.9,3.4,4.3,5c-1.4,1.4-2.9,2.9-4.3,4.3C44.4,76,44.4,72.9,44.4,69.8z"/>
</g>
<path class="st1" d="M134.9,12.6c0.4-0.4,0.8-0.8,1.2-1.2c1.3,1.3,2.6,2.6,4,3.9c1.3-1.3,2.6-2.6,4-3.9c0.4,0.4,0.8,0.8,1.2,1.2
	c-1.7,1.7-3.4,3.4-5.1,5.1C138.3,16,136.6,14.3,134.9,12.6z"/>
<g>
	<path class="st1" d="M117,15.3c0,4.5-3.7,8.3-8.3,8.3c-4.5,0-8.2-3.7-8.2-8.2s3.7-8.3,8.3-8.3C113.2,7,117,10.7,117,15.3z
		 M111.2,18.6c0.3,0,0.6,0,0.8,0c0.6,0,1.1,0.3,1.4,0.8c0.1,0.1,0.1,0.2,0.2,0.4c1.5-1.8,2.1-3.8,1.5-6c-0.5-2.1-1.9-3.6-3.9-4.6
		c0,0.1,0,0.2,0,0.3c0,0.8-0.6,1.5-1.4,1.6c-0.5,0.1-1,0-1.5,0c-0.1,0-0.3,0-0.4,0v0.1c0,0.5,0,1,0,1.6c0,0.5-0.3,0.8-0.8,0.9
		c-0.5,0-0.9,0-1.4,0c-0.1,0-0.1,0-0.2,0c0,0.6,0,1.1,0,1.7c0.1,0,0.2,0,0.2,0c1.5,0,3,0,4.5,0c0.1,0,0.2,0,0.3,0
		c0.5,0,0.7,0.3,0.7,0.8c0,0.7,0,1.3,0,2C111.2,18.2,111.2,18.4,111.2,18.6z M107.9,21.8c0-0.5,0-1,0-1.5c-0.1,0-0.1,0-0.2,0
		c-0.7-0.1-1.3-0.7-1.4-1.4c0-0.3,0-0.6,0-0.9c0-0.1,0-0.2-0.1-0.3c-1.2-1.2-2.5-2.5-3.7-3.7l-0.1-0.1
		C101.4,17.7,104.3,21.4,107.9,21.8z"/>
</g>
<path class="st4" d="M155.8,82.8c-4.4,0-8-3.6-8-8s3.6-8,8-8s8,3.6,8,8S160.2,82.8,155.8,82.8z M155,70.9c0,1.6,0,3.2,0,4.8
	c0.5,0,1,0,1.6,0c0-1.6,0-3.2,0-4.8C156.1,70.9,155.6,70.9,155,70.9z M156.6,78.8c0-0.5,0-1.1,0-1.6c-0.5,0-1,0-1.6,0
	c0,0.5,0,1.1,0,1.6C155.6,78.8,156.1,78.8,156.6,78.8z"/>
<path class="st5" d="M184.6,74.8c0,4.4-3.6,8-8,8s-8-3.6-8-8s3.6-8,8-8S184.6,70.4,184.6,74.8z M175,78.7c2.4-2.4,4.8-4.8,7.1-7.1
	c-0.3-0.3-0.7-0.7-1.1-1.1c-2,2-4,4-6.1,6.1c-0.9-1-1.9-1.9-2.8-2.8c-0.4,0.4-0.7,0.7-1.1,1.1C172.4,76.1,173.7,77.4,175,78.7z"/>
<path class="st6" d="M26.8,116.4H4.2c-2,0-3.7-1.6-3.7-3.7V90.2c0-2,1.6-3.7,3.7-3.7h22.5c2,0,3.7,1.6,3.7,3.7v22.5
	C30.4,114.7,28.8,116.4,26.8,116.4z"/>
<path class="st7" d="M63,116.4H40.5c-2,0-3.7-1.6-3.7-3.7V90.2c0-2,1.6-3.7,3.7-3.7H63c2,0,3.7,1.6,3.7,3.7v22.5
	C66.7,114.7,65.1,116.4,63,116.4z"/>
<path class="st8" d="M98.4,116.4H75.9c-2,0-3.7-1.6-3.7-3.7V90.2c0-2,1.6-3.7,3.7-3.7h22.5c2,0,3.7,1.6,3.7,3.7v22.5
	C102.1,114.7,100.5,116.4,98.4,116.4z"/>
<path class="st9" d="M134.2,116.4h-22.5c-2,0-3.7-1.6-3.7-3.7V90.2c0-2,1.6-3.7,3.7-3.7h22.5c2,0,3.7,1.6,3.7,3.7v22.5
	C137.9,114.7,136.2,116.4,134.2,116.4z"/>
<path class="st1" d="M12.5,102.2c0.5,0,1,0,1.5,0c0,1.8,0,3.6,0,5.3c0.8,0,1.5,0,2.3,0c0-1.8,0-3.5,0-5.3c0.8,0,1.5,0,2.3,0
	c0-0.8,0-1.5,0-2.3c-0.8,0-1.5,0-2.3,0c0-0.5,0-0.9,0-1.4c0-0.7,0.2-0.9,0.9-0.9c0.4,0,0.9,0,1.4,0c0-0.8,0-1.5,0-2.3
	c-0.6,0-1.1,0-1.7,0c-1.8,0-2.9,1.1-2.9,2.9c0,0.6,0,1.1,0,1.7c-0.5,0-1,0-1.5,0C12.5,100.7,12.5,101.4,12.5,102.2z"/>
<path class="st1" d="M46.2,105.3C46.2,105.4,46.3,105.4,46.2,105.3c0.2,0.1,0.2,0.2,0.3,0.2c2,1,4,1,5.9,0.1c2.4-1.1,3.6-3,3.9-5.6
	c0.1-0.6,0.1-1.1,0.7-1.5c0.2-0.1,0.2-0.3,0.4-0.6c-0.5,0.1-0.8,0.2-1.1,0.2c0.3-0.4,0.5-0.8,0.8-1.1c-0.4,0-0.8,0.2-1.2,0.3
	c-0.2,0-0.4,0-0.5-0.1c-0.8-0.7-1.7-0.7-2.7-0.3c-0.9,0.4-1.4,1.2-1.4,2.2c0,0.1,0,0.2,0,0.4c-2-0.1-3.5-1.1-4.9-2.5
	c-0.5,1.2-0.2,2.2,0.6,3.3c-0.4-0.1-0.6-0.2-0.9-0.2c0.1,1.1,0.6,1.9,1.6,2.4c-0.2,0-0.4,0-0.7,0c0.4,1,1.1,1.5,2.2,1.7
	C48.4,105,47.3,105.2,46.2,105.3z"/>
<path class="st1" d="M92.6,101.1c0-0.1,0-0.2,0-0.4c0-0.1,0-0.2-0.1-0.3l0,0c-1.8,0-3.6,0-5.3,0l0,0l0,0c0,0.7,0,1.5,0,2.2l0,0l0,0
	c1,0,2,0,3,0l0,0c0,0.2-0.1,0.4-0.2,0.5c-0.2,0.4-0.4,0.7-0.7,1c-0.1,0.1-0.2,0.1-0.3,0.2c0,0-0.1,0-0.1,0.1c-0.5,0.3-1,0.4-1.6,0.4
	c-0.2,0-0.4,0-0.5,0c-0.3,0-0.6-0.1-0.9-0.2c-0.8-0.3-1.4-0.8-1.8-1.6c-0.1-0.2-0.2-0.3-0.2-0.5v-0.1c-0.1-0.2-0.1-0.5-0.1-0.7
	s0-0.3,0-0.5s0-0.4,0.1-0.5c0-0.1,0.1-0.2,0.1-0.3l0,0c0.1-0.4,0.3-0.8,0.6-1.1c0.7-0.8,1.5-1.2,2.6-1.2c0.2,0,0.3,0,0.5,0
	c0.1,0,0.2,0,0.3,0c0.5,0.1,1,0.3,1.4,0.7l0,0c0.5-0.5,1.1-1.1,1.6-1.6l0,0c-0.3-0.3-0.6-0.5-0.9-0.7c-0.7-0.4-1.4-0.6-2.2-0.7
	c-0.1,0-0.3,0-0.4,0c-0.2,0-0.3,0-0.5,0c-0.1,0-0.2,0-0.3,0c-0.1,0-0.2,0-0.3,0c-0.2,0-0.5,0.1-0.7,0.1c-0.6,0.2-1.1,0.4-1.7,0.8
	c-0.7,0.5-1.2,1-1.7,1.7c-0.1,0.2-0.2,0.3-0.3,0.5l0,0c-0.1,0.3-0.2,0.6-0.3,0.8c-0.1,0.4-0.2,0.8-0.2,1.3c0,0.1,0,0.1,0,0.2
	c0,0.2,0,0.5,0,0.7s0,0.3,0.1,0.5c0.1,0.5,0.2,0.9,0.4,1.4c0,0.1,0.1,0.1,0.1,0.2l0,0c0.2,0.5,0.5,0.9,0.9,1.3
	c0.5,0.5,1,0.9,1.6,1.2c0.4,0.2,0.8,0.4,1.3,0.5c0.2,0.1,0.4,0.1,0.7,0.1c0.1,0,0.2,0,0.3,0c0.1,0,0.2,0,0.3,0c0.2,0,0.4,0,0.6,0
	c0.1,0,0.2,0,0.3,0c0.2,0,0.4-0.1,0.5-0.1c0.8-0.2,1.5-0.5,2.1-1c0.1-0.1,0.3-0.2,0.4-0.3l0,0c0.2-0.2,0.5-0.5,0.7-0.8
	c0.4-0.6,0.7-1.3,0.9-2c0.1-0.2,0.1-0.5,0.1-0.7c0-0.1,0-0.3,0-0.4s0-0.1,0-0.2C92.6,101.5,92.6,101.3,92.6,101.1z"/>
<path class="st1" d="M122.2,103.9c-0.2,0.7-0.4,1.4-0.6,2.1c-0.1,0.4-0.4,0.6-0.8,0.6c-0.3,0-0.6-0.3-0.7-0.6c0-0.1,0-0.2,0-0.3
	c0.4-1.3,0.8-2.6,1.3-3.9c0-0.1,0-0.2,0-0.3c-0.1-0.5-0.1-1,0-1.5c0.2-0.7,0.8-1.1,1.5-0.9c0.4,0.1,0.6,0.4,0.6,0.8
	s-0.1,0.7-0.2,1.1c-0.1,0.3-0.3,0.6-0.4,0.9c-0.1,0.6,0.3,1.1,0.9,1.1c1.2,0,2.1-0.9,2.2-2.1c0.1-1.5-1-2.8-2.4-3
	c-1.6-0.2-3,0.7-3.4,2.2c-0.1,0.6,0,1.2,0.2,1.8c0.1,0.1,0.1,0.3,0.1,0.4c0,0.4-0.2,0.6-0.5,0.7s-0.7,0-0.9-0.4
	c-0.8-1.5-0.7-3.3,0.4-4.7c1.1-1.3,2.6-1.8,4.3-1.5c1.6,0.3,2.7,1.3,3.2,2.9c0.4,1.1,0.3,2.3-0.3,3.3c-0.7,1.3-2.3,2.1-3.7,1.7
	C122.8,104.3,122.5,104,122.2,103.9z"/>
<g>
	<path class="st1" d="M112.3,44.7C112.3,44.7,112.3,44.7,112.3,44.7c-1.1,0.7-2.2,1.4-3.3,2c-0.6,0.4-1.2,0.7-1.8,1.1
		c-0.2,0.1-0.3,0.3-0.3,0.5c0,0,0,0.1,0,0.1c0.2,0.6,0.4,1.3,0.5,1.9c0,0.1,0.1,0.1,0.1,0.1c0.1,0,0.1-0.1,0.1-0.2
		c0-0.3,0.1-0.6,0.1-0.9c0-0.3,0.2-0.6,0.4-0.8c1.3-1.2,2.6-2.4,3.9-3.6c0.1,0,0.1-0.1,0.2-0.1c0,0,0-0.1,0-0.1
		C112.4,44.7,112.4,44.7,112.3,44.7z"/>
	<path class="st1" d="M116.3,38.6c-4.7,0-9.4,0-14.1,0c-1.2,0-1.9,0.8-1.9,2c0,4.6,0,9.3,0,13.9c0,1.3,0.7,2,2,2c2.3,0,4.6,0,6.9,0
		c2.4,0,4.7,0,7,0c1.3,0,2-0.7,2-2c0-4.6,0-9.3,0-13.9C118.2,39.3,117.5,38.6,116.3,38.6z M114.9,43c-0.1,0.6-0.2,1.2-0.4,1.8
		c-0.4,2-0.8,3.9-1.2,5.9c-0.1,0.5-0.2,1-0.3,1.5c-0.1,0.3-0.3,0.4-0.5,0.2c-0.8-0.6-1.7-1.2-2.5-1.8c-0.3-0.2-0.4-0.2-0.7,0
		c-0.4,0.4-0.9,0.7-1.3,1.1c-0.2,0.2-0.5,0.1-0.5-0.2c-0.3-1-0.6-2-0.9-3c0-0.1-0.1-0.2-0.2-0.2c-0.8-0.3-1.6-0.6-2.4-0.9
		c-0.1,0-0.2-0.1-0.3-0.3c0-0.1,0-0.1,0-0.2c0.1-0.1,0.2-0.2,0.3-0.2c3.5-1.3,7-2.7,10.5-4c0.1,0,0.1-0.1,0.2-0.1
		C114.8,42.6,114.9,42.8,114.9,43z"/>
</g>
</svg>
